<!-- 
#DADBD3
#A3C9FA 
#8d8e87
-->
<svg width="29" height="15" viewBox="0 0 29 15" fill="none" xmlns="http://www.w3.org/2000/svg">
<g clip-path="url(#clip0)">
<path d="M6.38153 14.9355C6.12179 14.9355 5.89452 14.8381 5.69972 14.6757L0.667248 9.83807C0.277638 9.48093 0.277638 8.86404 0.634781 8.47443C0.991924 8.08482 1.60881 8.08482 1.99842 8.44197L6.25166 12.5004L15.44 0.390018C15.7647 -0.0320596 16.3815 -0.129462 16.8036 0.195213C17.2257 0.519888 17.3231 1.13677 16.9984 1.55885L7.16075 14.5459C6.99842 14.7731 6.73868 14.903 6.44647 14.9355C6.44647 14.9355 6.414 14.9355 6.38153 14.9355Z" fill="#b5b6ad"/>
<path d="M13.7192 15.0004C13.4595 15.0004 13.2322 14.903 13.0374 14.7407L10.6672 12.4679C10.2776 12.1108 10.2776 11.4939 10.6348 11.1043C10.9919 10.7147 11.6088 10.7147 11.9984 11.0718L13.5893 12.5978L22.875 0.390018C23.1997 -0.0320596 23.8166 -0.129462 24.2387 0.195213C24.6608 0.519888 24.7582 1.13677 24.4335 1.55885L14.4984 14.6108C14.3361 14.8381 14.0763 14.9679 13.7841 15.0004C13.7517 15.0004 13.7517 15.0004 13.7192 15.0004Z" fill="#b5b6ad"/>
</g>
<defs>
<clipPath id="clip0">
<rect width="28.125" height="15" fill="white" transform="translate(0.375)"/>
</clipPath>
</defs>
</svg>
