<svg width="15" height="11" viewBox="0 0 15 11" fill="none" xmlns="http://www.w3.org/2000/svg">
<path d="M13.4509 4.83271C13.7556 5.23129 13.7556 5.76936 13.4509 6.16729C12.4911 7.42021 10.1884 10 7.49997 10C4.81154 10 2.50883 7.42021 1.54904 6.16729C1.40079 5.97644 1.32031 5.74166 1.32031 5.5C1.32031 5.25834 1.40079 5.02356 1.54904 4.83271C2.50883 3.57979 4.81154 1 7.49997 1C10.1884 1 12.4911 3.57979 13.4509 4.83271Z" stroke="#ABC8F6" stroke-width="1.54489" stroke-linecap="round" stroke-linejoin="round"/>
<path d="M7.49888 7.42843C8.564 7.42843 9.42746 6.56498 9.42746 5.49986C9.42746 4.43474 8.564 3.57129 7.49888 3.57129C6.43376 3.57129 5.57031 4.43474 5.57031 5.49986C5.57031 6.56498 6.43376 7.42843 7.49888 7.42843Z" stroke="#ABC8F6" stroke-width="1.54489" stroke-linecap="round" stroke-linejoin="round"/>
</svg>
