<!-- //#DADBD3
//#A3C9FA -->
<svg width="29" height="15" viewBox="0 0 29 15" fill="none" xmlns="http://www.w3.org/2000/svg">
<g clip-path="url(#clip0)">
<path d="M6.25653 14.9355C5.99679 14.9355 5.76952 14.8381 5.57472 14.6757L0.542248 9.83807C0.152638 9.48093 0.152638 8.86404 0.509781 8.47443C0.866924 8.08482 1.48381 8.08482 1.87342 8.44197L6.12666 12.5004L15.315 0.390018C15.6397 -0.0320596 16.2565 -0.129462 16.6786 0.195213C17.1007 0.519888 17.1981 1.13677 16.8734 1.55885L7.03575 14.5459C6.87342 14.7731 6.61368 14.903 6.32147 14.9355C6.32147 14.9355 6.289 14.9355 6.25653 14.9355Z" fill="#93cdd6"/>
<path d="M13.5942 15.0004C13.3345 15.0004 13.1072 14.903 12.9124 14.7407L10.5422 12.4679C10.1526 12.1108 10.1526 11.4939 10.5098 11.1043C10.8669 10.7147 11.4838 10.7147 11.8734 11.0718L13.4643 12.5978L22.75 0.390018C23.0747 -0.0320596 23.6916 -0.129462 24.1137 0.195213C24.5358 0.519888 24.6332 1.13677 24.3085 1.55885L14.3734 14.6108C14.2111 14.8381 13.9513 14.9679 13.6591 15.0004C13.6267 15.0004 13.6267 15.0004 13.5942 15.0004Z" fill="#A3C9FA"/>
</g>
<defs>
<clipPath id="clip0">
<rect width="28.125" height="15" fill="white" transform="translate(0.25)"/>
</clipPath>
</defs>
</svg>